<?xml version="1.0" encoding="UTF-8"?>
<svg id="Layer_1" data-name="Layer 1" xmlns="http://www.w3.org/2000/svg" version="1.1" viewBox="0 0 40 40">
  <defs>
    <style>
      .cls-1 {
        stroke-width: 0px;
      }
    </style>
  </defs>
  <path class="cls-1" d="M9.59,17.88c0,.49-.02.91,0,1.33.08,1.4.86,2.33,2.16,2.62.36.08.72.11,1.08.1.96-.03,1.9-.18,2.85-.31.15-.02.27-.07.27-.25,0-1.07.4-2.01.93-2.91.64-1.07,1.4-2.03,2.35-2.84.44-.37.92-.67,1.49-.77.71-.12,1.27.17,1.54.85.32.78.28,1.58.06,2.38-.17.6-.46,1.15-.8,1.68-.14.21-.28.42-.41.63-.04.07-.13.14-.09.22.05.09.15.04.23.04,1.44-.02,2.73-.4,3.77-1.44.02-.02.04-.04.06-.06q.44-.4.71.11c.16.31.29.33.48.04.69-1.03,1.38-2.08,2.2-3.02,1.17-1.35,2.52-2.45,4.22-3.05,1.52-.53,2.94-.28,4.17.78.99.86,1.27,2.17.76,3.38-.64,1.55-1.81,2.64-3.19,3.52-1.52.97-3.23,1.43-4.99,1.75-.86.16-1.73.24-2.61.22-.62,0-1.17-.2-1.61-.64-.2-.2-.42-.4-.62-.6-.1-.1-.16-.11-.26,0-1.34,1.37-3.02,1.67-4.82,1.45-.68-.09-1.3-.02-1.92.25-1.46.64-2.99,1.07-4.57,1.3-.64.09-1.26,0-1.87-.2-.19-.06-.37-.12-.56-.17-.34-.09-.34-.09-.41.27-.36,1.75-1.18,3.28-2.32,4.63-1.26,1.49-2.89,1.94-4.77,1.56-.58-.12-1.14-.27-1.66-.54-.18-.09-.36-.2-.5-.35-.11-.13-.21-.29-.14-.46.06-.15.24-.12.37-.13.51-.03,1.02-.05,1.53-.1,1.26-.11,2.36-.6,3.37-1.35,1.2-.88,2.1-1.98,2.66-3.36.23-.57.22-1.1-.04-1.67-.66-1.43-.48-2.84.24-4.2.13-.26.33-.47.64-.7ZM28.36,20.56c.24-.02.48-.04.72-.07,1.82-.22,3.58-.65,5.25-1.4.44-.2.86-.44,1.19-.81.45-.49.48-1,.1-1.54-.42-.59-1.02-.9-1.71-.99-1.57-.2-2.97.21-4.18,1.22-1.05.88-1.94,1.91-2.77,3.01-.12.16-.07.21.08.28.42.22.86.27,1.32.29ZM18.75,20.62c.22,0,.42-.05.62-.15.91-.45,1.32-1.22,1.35-2.21.02-.55-.31-.77-.84-.61-.79.24-1.42.71-1.93,1.35-.13.16-.23.34-.26.55-.1.56.4,1.06,1.08,1.06Z"/>
  <path class="cls-1" d="M36.64,27.03c-.4-.03-.81-.05-1.21-.1-3.26-.35-6.52-.43-9.79-.11-2.12.21-4.24.41-6.32.88-2.27.51-4.46,1.29-6.6,2.19-.92.39-1.91.43-2.88.6.2-.26.45-.43.7-.61,2.2-1.56,4.65-2.47,7.3-2.96,4.09-.76,8.21-1.07,12.37-.89,2.07.09,4.1.41,6.12.84.11.02.21.06.32.08,0,.02,0,.04,0,.07Z"/>
  <path class="cls-1" d="M29.21,34.94c.69.54,1.03,1.29,1.48,1.96.09.14.11.22-.1.21,0,0-.02,0-.03,0q-.94.03-1.48-.75c-.19-.28-.37-.56-.55-.84-.23-.34-.55-.48-.95-.47-.16,0-.21.06-.2.22,0,.52,0,1.04,0,1.56,0,.22-.07.28-.27.26-.18-.01-.37,0-.56,0-.15,0-.19-.06-.19-.2,0-1.51,0-3.03,0-4.54,0-.14.04-.2.19-.2.9,0,1.8,0,2.7.06.6.04,1.03.46,1.13,1.05.11.66-.17,1.26-.73,1.51-.12.06-.26.1-.44.17ZM28.19,34.2h0c.19,0,.39,0,.58,0,.03,0,.06,0,.08,0,.33-.04.49-.23.49-.59,0-.36-.13-.53-.48-.54-.44-.02-.87,0-1.31-.01-.14,0-.17.07-.17.19,0,.26,0,.52,0,.78,0,.15.05.2.2.19.2,0,.41,0,.61,0Z"/>
  <path class="cls-1" d="M22.98,4.05c-.12.17-.28.29-.45.4-.36.24-.73.49-1.1.71-.19.12-.24.24-.16.45.18.5.33,1,.5,1.51.03.09.08.17.05.31-.38-.26-.74-.51-1.1-.75-.72-.47-.45-.5-1.2,0-.3.2-.58.43-.91.59-.07.03-.14.09-.21.04-.08-.06,0-.14.02-.2.16-.49.33-.99.5-1.48.06-.17.03-.28-.11-.38-.43-.31-.85-.63-1.27-.95-.06-.04-.11-.09-.17-.15-.04-.04-.1-.07-.07-.14.03-.07.09-.04.15-.04.57,0,1.13-.01,1.7,0,.24,0,.35-.08.41-.31.13-.52.28-1.04.43-1.56.03-.11.06-.21.17-.29.1.11.1.26.14.39.15.5.3,1,.43,1.5.06.22.16.29.39.29.54-.02,1.08-.01,1.62-.01.09,0,.19-.04.27.06Z"/>
  <path class="cls-1" d="M13.64,37.18c-1.14,0-2.01-.71-2.22-1.84-.13-.68-.1-1.35.19-1.99.36-.81,1.01-1.23,1.87-1.29.77-.06,1.46.15,1.91.84.36.55.34.59-.28.76-.28.08-.46.08-.62-.23-.2-.41-.58-.56-1.03-.49-.5.08-.82.38-.95.86-.15.55-.15,1.1,0,1.65.14.5.51.8.99.83.52.03.88-.19,1.07-.71.1-.28.23-.34.48-.21.08.04.18.05.27.08.37.11.38.13.23.5-.3.77-1.02,1.23-1.91,1.23Z"/>
  <path class="cls-1" d="M21.81,34.6c0-.72,0-1.45,0-2.17,0-.2.04-.28.26-.28.96.01,1.91.01,2.87,0,.2,0,.25.06.25.25,0,.61,0,.61-.59.61-.5,0-1,0-1.5,0-.2,0-.26.06-.25.25.01.22.01.45,0,.67,0,.16.06.21.21.2.5,0,1,0,1.5,0,.22,0,.31.04.31.29-.01.59,0,.59-.6.59-.39,0-.78.01-1.17,0-.23-.01-.28.07-.27.29.01.52,0,1.04,0,1.56,0,.18-.06.25-.24.24-.18-.01-.35-.01-.53,0-.2.02-.25-.07-.25-.26,0-.74,0-1.49,0-2.23h0Z"/>
  <path class="cls-1" d="M16.39,32.15c.33,0,.65,0,.97,0,.17,0,.25.14.33.27.29.48.58.95.86,1.43.1.18.16.2.27,0,.26-.46.54-.91.8-1.37.14-.25.32-.37.61-.34.17.01.34.01.5,0,.26-.02.23.07.13.24-.47.74-.93,1.48-1.4,2.21-.18.27-.27.56-.26.89.02.45,0,.91,0,1.37,0,.18-.06.24-.24.24-.79.01-.79.02-.79-.76q0-1.31-.69-2.41c-.33-.52-.65-1.04-.98-1.55-.04-.06-.1-.11-.08-.22Z"/>
  <path class="cls-1" d="M20.17,10.17s.11.03.17.06c.4.18.75.44,1.06.76.11.12.18.26.12.43-.23.66-.58,1.24-1.11,1.71-.19.17-.36.18-.57.03-.36-.26-.74-.5-1.12-.74-.22-.14-.25-.29-.1-.51.36-.53.7-1.07,1.15-1.54.1-.1.2-.2.39-.2Z"/>
</svg>